<svg xmlns="http://www.w3.org/2000/svg" width="120.068" height="66.125" viewBox="0 0 120.068 66.125">
  <g id="Grupo_761" data-name="Grupo 761" transform="translate(-1377.169 -1308.936)">
    <path id="Caminho_55" data-name="Caminho 55" d="M1497.049,1363.291a8.606,8.606,0,0,0-2.982-4.82c-1.783-1.436-6.161-1.434-6.161-1.434a11.941,11.941,0,0,0-7.739-2.551,7.633,7.633,0,0,0-6.562,3.565,6,6,0,0,0-5.6,1.912c-.512-2.921-2.167-5.508-2.2-8.027-.024-1.9,1.918-3.366,1.849-5.262-.113-3.076-1.268-4.962-.679-7.984a34.525,34.525,0,0,1,3.749-9.223l7.123-13.593c.517-.986.99-2.317.2-3.1-.767-.754-2.054-.318-2.988.216-4.484,2.564-8.077,6.393-11.933,9.829a39.4,39.4,0,0,1-6.831,5.046c.256-.587.507-1.2.812-1.8l.917-1.884,1-1.843c.318-.615.682-1.191,1.019-1.756s.652-1.121.994-1.619l.941-1.419.42-.63.4-.552.654-.9.57-.782-.591.766-.678.88-.417.542-.437.619-.981,1.4c-.356.491-.677,1.043-1.04,1.6s-.733,1.127-1.069,1.735l-1.053,1.823-.972,1.868c-.333.611-.608,1.237-.889,1.837-.067.149-.136.3-.2.442a20.532,20.532,0,0,1-3.63,1.5c.166-.592.325-1.207.53-1.819l.6-1.88.664-1.857c.209-.617.457-1.207.685-1.784s.439-1.138.676-1.655l.648-1.466.29-.651.281-.578.457-.939.4-.819-.421.807-.484.927-.3.57-.308.643-.69,1.449c-.251.511-.471,1.071-.724,1.639s-.51,1.157-.738,1.769l-.719,1.845-.652,1.87c-.225.614-.4,1.232-.589,1.826-.024.082-.049.161-.074.242a16.737,16.737,0,0,1-1.829.388c-6.312.963-12.57-1.876-18.892-2.629l.205-1.959c.05-.411.07-.814.14-1.187l.176-1.057.364-2.184-.456,2.167-.221,1.051c-.086.372-.123.773-.191,1.183l-.289,1.955a22.144,22.144,0,0,0-3.594-.12c-.027-.182-.05-.367-.084-.552l-.124-.612-.255-1.263c-.177-.857-.332-1.747-.584-2.632l-.7-2.694-.846-2.651c-.258-.881-.6-1.717-.91-2.534l-.458-1.2-.222-.583c-.077-.19-.164-.374-.244-.557l-.918-2.06c-.144-.318-.275-.626-.411-.913l-.413-.8-.671-1.306-.585-1.138.562,1.149.644,1.319.4.811c.131.29.255.6.392.92l.874,2.074c.076.185.16.369.232.561l.209.586.432,1.208c.29.821.616,1.661.855,2.544l.789,2.656.642,2.695c.233.884.369,1.773.528,2.628l.228,1.26.11.61c.028.172.047.342.068.511-.071.005-.141.008-.212.015-1.354.123-2.706.4-4.054.628l-.558-1.506-.866-2.156c-.277-.714-.587-1.4-.875-2.072s-.56-1.321-.849-1.925l-.8-1.707c-.242-.531-.478-1.011-.693-1.433l-.549-1.1-.479-.956.455.967.522,1.11c.2.427.429.912.658,1.448l.755,1.724c.273.609.522,1.269.8,1.942s.564,1.369.823,2.089l.812,2.171.5,1.457a18.462,18.462,0,0,1-2.79.262l-4.944-9.194,4.536,9.186a9.774,9.774,0,0,1-1.27-.116c-5-.812-5.143-5.137-10.119-10.375-1.809-1.9-1.7-5.045-3.348-7.093s-4.508-3.419-6.934-2.414c-2.5,1.034-3.491,3.994-4.04,6.639-1.2,5.795-.211,11.841-1.315,17.656-.8,4.237,1.208,7.974,1.6,10.127.886,4.91-2.138,6.136-1.7,10.3a3.8,3.8,0,0,0,.532,1.565,6.312,6.312,0,0,0-2.912,1.688c-3.219-1.4-7.116.625-8.728,3.746-1.849.132-3.763,4.117-3.24,6.876a3.923,3.923,0,0,0,1.051,2.167,2.044,2.044,0,0,0,2.255.434,6.154,6.154,0,0,0,8.559.661,2.654,2.654,0,0,0,2.055,1.613,15.515,15.515,0,0,0,3.844.085,5.531,5.531,0,0,0,3.04-1.8,4.523,4.523,0,0,0,4.754.792c1.548-.58,1.983-3.1,1.78-5.151l62.4-.016c.006-.01.01-.019.016-.029a5.63,5.63,0,0,0,1.386,2.151,5.971,5.971,0,0,0,6.953.79c2.263,2.431,5.347,2.389,7.83.184.1,1.045,2.267,2.22,3.317,2.225a5.756,5.756,0,0,0,4.177-1.631,4.73,4.73,0,0,0,2.74.528A6.2,6.2,0,0,0,1495.6,1369C1497.236,1367.815,1497.481,1365.267,1497.049,1363.291Zm-65.97-5.3c-2.272-.483-3.378.875-5.116.985a11.458,11.458,0,0,1-4.971-.628,8.035,8.035,0,0,1-4.757-5.517,3.826,3.826,0,0,1,.162-2.632,4.008,4.008,0,0,1,2.612-1.778,9.638,9.638,0,0,1,5.128.045,3.124,3.124,0,0,0-1.8.864l.025,0a.748.748,0,1,1-.734.893,5.064,5.064,0,0,0-.688,2.585c0,2.407,1.57,4.358,3.506,4.358s3.506-1.951,3.506-4.358a4.939,4.939,0,0,0-.985-3.024c.171.118.34.24.5.369A9.714,9.714,0,0,1,1431.08,1357.993Zm20.7-6.793a.748.748,0,1,1-.748.748A.748.748,0,0,1,1451.781,1351.2Zm6.34,5.009a6.325,6.325,0,0,1-3.208,3.515,7.6,7.6,0,0,1-4.5-.243c-1.193-.312-1.442-.918-3.579-.937.073-.876.108-.078.128-.957a7.694,7.694,0,0,1,2.419-5.381,7.492,7.492,0,0,1,1.516-1.089,4.973,4.973,0,0,0-.895,2.9c0,2.407,1.57,4.358,3.506,4.358s3.506-1.951,3.506-4.358a4.6,4.6,0,0,0-1.819-3.82,4.005,4.005,0,0,1,3.339,1.946A4.858,4.858,0,0,1,1458.121,1356.21Z" transform="translate(0 3)" fill="#896efb"/>
  </g>
</svg>
